<svg width="20" height="20" viewBox="0 0 20 20" fill="none" xmlns="http://www.w3.org/2000/svg">
<rect width="20" height="20" rx="10" fill="#C12116"/>
<path d="M8.5385 14C8.3305 14 8.1665 13.944 8.0465 13.832C7.9345 13.712 7.8785 13.552 7.8785 13.352C7.8785 13.144 7.9345 12.988 8.0465 12.884C8.1665 12.78 8.3305 12.728 8.5385 12.728H9.8825V6.836H10.6265L8.8625 7.904C8.7105 7.992 8.5665 8.028 8.4305 8.012C8.3025 7.988 8.1905 7.932 8.0945 7.844C8.0065 7.748 7.9465 7.636 7.9145 7.508C7.8825 7.38 7.8905 7.252 7.9385 7.124C7.9945 6.988 8.0985 6.876 8.2505 6.788L9.9065 5.792C10.0665 5.696 10.2265 5.616 10.3865 5.552C10.5465 5.48 10.6945 5.444 10.8305 5.444C10.9985 5.444 11.1385 5.492 11.2505 5.588C11.3625 5.676 11.4185 5.824 11.4185 6.032V12.728H12.6425C12.8505 12.728 13.0105 12.78 13.1225 12.884C13.2425 12.988 13.3025 13.144 13.3025 13.352C13.3025 13.56 13.2425 13.72 13.1225 13.832C13.0105 13.944 12.8505 14 12.6425 14H8.5385Z" fill="white"/>
</svg>
