<svg xmlns="http://www.w3.org/2000/svg" width="1600" height="1200" viewBox="0 0 1600 1200">
  <defs>
    <linearGradient id="bg" x1="0" x2="1" y1="0" y2="1">
      <stop offset="0" stop-color="#0a0a0a"/>
      <stop offset="0.5" stop-color="#2b0b0b"/>
      <stop offset="1" stop-color="#0f0f0f"/>
    </linearGradient>
    <radialGradient id="glow" cx="35%" cy="45%" r="65%">
      <stop offset="0" stop-color="#ff3b30" stop-opacity="0.18"/>
      <stop offset="1" stop-color="#ff3b30" stop-opacity="0"/>
    </radialGradient>
    <filter id="soft" x="-20%" y="-20%" width="140%" height="140%">
      <feGaussianBlur stdDeviation="10"/>
    </filter>
  </defs>

  <rect width="1600" height="1200" fill="url(#bg)"/>
  <rect width="1600" height="1200" fill="url(#glow)"/>

  <!-- simple burger illustration (original, non-copyrighted) -->
  <g transform="translate(170 290)">
    <ellipse cx="420" cy="610" rx="360" ry="85" fill="#000" opacity="0.35" filter="url(#soft)"/>

    <path d="M120 460c0-190 130-300 300-320 220-25 455 70 520 230 10 25 16 55 16 90 0 40-15 70-40 85-25 16-60 20-110 20H260c-75 0-125-10-155-30-20-14-35-40-35-75z" fill="#f3b879"/>
    <path d="M170 385c70-120 230-185 400-165 140 16 250 80 300 165" fill="none" stroke="#ffd7a1" stroke-width="18" stroke-linecap="round" opacity="0.55"/>
    <circle cx="330" cy="250" r="10" fill="#fff" opacity="0.25"/>
    <circle cx="395" cy="230" r="8" fill="#fff" opacity="0.22"/>
    <circle cx="470" cy="265" r="7" fill="#fff" opacity="0.2"/>

    <rect x="170" y="520" width="550" height="90" rx="45" fill="#5a2a1f"/>
    <path d="M180 585c55 35 120 50 200 45 70-5 110-25 160-40 70-22 130-18 210 15" fill="none" stroke="#7a3b2b" stroke-width="18" stroke-linecap="round" opacity="0.6"/>

    <path d="M190 520c20-30 55-50 100-55 85-10 135 50 190 50 60 0 120-80 215-60 60 12 95 55 95 105H190z" fill="#f6d64a"/>

    <path d="M190 560c60-40 115-55 165-45 55 12 95 60 165 55 60-4 100-55 170-65 65-9 125 18 170 70" fill="#d33" opacity="0.75"/>

    <path d="M210 595c25-35 60-55 110-55 70 0 105 50 160 55 70 6 110-55 185-55 60 0 110 25 140 80" fill="#2fbf71" opacity="0.9"/>

    <rect x="170" y="600" width="550" height="110" rx="55" fill="#f0b06e"/>
    <path d="M200 650h490" stroke="#d69556" stroke-width="12" stroke-linecap="round" opacity="0.55"/>
  </g>

  <!-- subtle steam -->
  <g opacity="0.25" fill="none" stroke="#fff" stroke-width="10" stroke-linecap="round">
    <path d="M210 260c-30 70 20 120 0 180"/>
    <path d="M270 230c-35 80 20 130 0 200"/>
    <path d="M340 250c-30 70 18 120 0 170"/>
  </g>
</svg>
