<svg width="24" height="24" viewBox="0 0 24 24" fill="none" xmlns="http://www.w3.org/2000/svg">
<path d="M11.9998 17.2747L7.84984 19.7747C7.66651 19.8914 7.47484 19.9414 7.27484 19.9247C7.07484 19.908 6.89984 19.8414 6.74984 19.7247C6.59984 19.608 6.48317 19.4624 6.39984 19.2877C6.31651 19.113 6.29984 18.917 6.34984 18.6997L7.44984 13.9747L3.77484 10.7997C3.60817 10.6497 3.50417 10.4787 3.46284 10.2867C3.42151 10.0947 3.43384 9.90737 3.49984 9.72471C3.56584 9.54204 3.66584 9.39204 3.79984 9.27471C3.93384 9.15737 4.11717 9.08237 4.34984 9.04971L9.19984 8.62471L11.0748 4.17471C11.1582 3.97471 11.2875 3.82471 11.4628 3.72471C11.6382 3.62471 11.8172 3.57471 11.9998 3.57471C12.1825 3.57471 12.3615 3.62471 12.5368 3.72471C12.7122 3.82471 12.8415 3.97471 12.9248 4.17471L14.7998 8.62471L19.6498 9.04971C19.8832 9.08304 20.0665 9.15804 20.1998 9.27471C20.3332 9.39137 20.4332 9.54137 20.4998 9.72471C20.5665 9.90804 20.5792 10.0957 20.5378 10.2877C20.4965 10.4797 20.3922 10.6504 20.2248 10.7997L16.5498 13.9747L17.6498 18.6997C17.6998 18.9164 17.6832 19.1124 17.5998 19.2877C17.5165 19.463 17.3998 19.6087 17.2498 19.7247C17.0998 19.8407 16.9248 19.9074 16.7248 19.9247C16.5248 19.942 16.3332 19.892 16.1498 19.7747L11.9998 17.2747Z" fill="#FFAB0D"/>
</svg>
